<svg id="svgContent" version="1.1"  xmlns="http://www.w3.org/2000/svg" xmlns:xlink="http://www.w3.org/1999/xlink" viewBox="0 0 500 500">
<g id="svgPath"><path d="M 310 267.500 L 310 389 339 389 L 368 389 368 267.500 L 368 146 339 146 L 310 146 310 267.500 M 223 302.500 L 223 389 251.500 389 L 280 389 280 302.500 L 280 216 251.500 216 L 223 216 223 302.500 M 135 330.500 L 135 389 164 389 L 193 389 193 330.500 L 193 272 164 272 L 135 272 135 330.500" stroke="none" fill="rgb(0, 174, 255)" fill-rule="evenodd"></path><path d="M 0 250.002 L 0 500.004 250.250 499.752 L 500.500 499.500 500.752 249.750 L 501.004 0 250.502 0 L 0 0 0 250.002 M 0.492 250.500 C 0.492 388, 0.608 444.101, 0.750 375.170 C 0.892 306.238, 0.892 193.738, 0.750 125.170 C 0.608 56.601, 0.492 113, 0.492 250.500 M 332.241 65.803 C 315.631 74.437, 302.032 81.763, 302.021 82.085 C 302.009 82.406, 307.001 83.531, 313.113 84.585 L 324.227 86.501 288.491 129.001 C 268.836 152.375, 252.210 172.084, 251.544 172.798 C 250.563 173.849, 247.853 172.656, 237.342 166.548 C 224.897 159.317, 221.800 158.144, 219.422 159.765 C 218.829 160.169, 208.953 171.750, 197.475 185.500 C 185.996 199.250, 171.960 215.992, 166.284 222.704 L 155.963 234.909 143.875 227.299 C 133.711 220.900, 131.418 219.833, 129.470 220.595 C 127.502 221.364, 88.435 266.395, 84.340 272.615 C 81.322 277.197, 87.488 283.330, 91.644 279.881 C 92.534 279.142, 101.808 268.404, 112.253 256.019 C 122.699 243.634, 131.553 233.379, 131.929 233.231 C 132.305 233.083, 137.313 235.946, 143.057 239.593 C 155.258 247.340, 157.021 248.127, 159.311 246.846 C 160.250 246.320, 172.584 232.078, 186.721 215.195 C 200.858 198.313, 214.988 181.498, 218.122 177.829 L 223.820 171.158 236.433 178.519 C 243.371 182.568, 249.968 186.172, 251.094 186.530 C 253.708 187.360, 252.408 188.801, 296.500 136.190 C 316.300 112.564, 332.785 93.519, 333.133 93.867 C 333.481 94.215, 335.463 99.359, 337.536 105.297 C 339.609 111.235, 341.633 115.735, 342.033 115.297 C 342.981 114.257, 363.263 50.929, 362.796 50.463 C 362.601 50.267, 348.851 57.170, 332.241 65.803 M 310 267.500 L 310 389 295.500 389 L 281 389 281 302.500 L 281 216 251.500 216 L 222 216 222 302.500 L 222 389 208 389 L 194 389 194 330.500 L 194 272 164.500 272 L 135 272 135 330.500 L 135 389 120.500 389 C 107.333 389, 105.816 389.184, 104 391 C 101.598 393.402, 101.431 396.288, 103.571 398.429 C 104.986 399.843, 119.633 400, 249.871 400 C 361.105 400, 394.878 399.722, 395.800 398.800 C 397.587 397.013, 397.253 391.913, 395.250 390.392 C 394.013 389.453, 389.764 389.054, 380.750 389.032 L 368 389 368 267.500 L 368 146 339 146 L 310 146 310 267.500" stroke="none" fill="transparent" fill-rule="evenodd"></path><path d="M 332.761 65.893 C 316.404 74.477, 303.017 81.748, 303.011 82.052 C 303.005 82.355, 307.540 83.333, 313.089 84.224 C 318.638 85.115, 323.440 86.106, 323.759 86.426 C 324.079 86.746, 323.432 88.019, 322.320 89.254 C 321.208 90.489, 304.687 110.063, 285.606 132.750 C 266.525 155.438, 250.596 173.996, 250.207 173.991 C 249.818 173.987, 243.650 170.612, 236.500 166.492 C 229.350 162.372, 222.733 159.001, 221.795 159 C 220.775 159, 207.751 173.776, 189.402 195.750 C 172.524 215.963, 158.133 233.130, 157.421 233.901 C 156.327 235.085, 154.312 234.168, 144.365 227.959 C 137.896 223.920, 131.712 220.590, 130.622 220.558 C 127.921 220.479, 84 272.075, 84 275.328 C 84 278.328, 85.798 280, 89.025 280 C 91.224 280, 94.867 276.177, 111.426 256.500 C 122.302 243.575, 131.718 233.010, 132.351 233.022 C 132.983 233.034, 138.423 236.184, 144.441 240.022 C 150.459 243.860, 156.350 247, 157.534 247 C 159.138 247, 167.301 237.906, 189.593 211.289 C 206.042 191.648, 220.434 174.481, 221.576 173.141 L 223.652 170.703 236.809 178.352 C 244.046 182.558, 250.817 186, 251.856 186 C 254.298 186, 255.115 185.081, 296.939 135.235 C 316.431 112.006, 332.661 93, 333.006 93 C 333.351 93, 335.371 97.944, 337.496 103.988 C 339.620 110.031, 341.606 114.727, 341.910 114.424 C 342.488 113.845, 363.005 50.628, 362.685 50.411 C 362.583 50.343, 349.117 57.310, 332.761 65.893 M 120.500 389.755 C 106.789 389.990, 105.354 390.187, 103.800 392.055 C 101.968 394.256, 102.353 396.753, 104.831 398.750 C 106.056 399.737, 136.624 400, 250.120 400 C 379.457 400, 394.015 399.843, 395.429 398.429 C 397.469 396.388, 397.439 392.609, 395.367 390.890 C 394.013 389.766, 371.758 389.532, 264.617 389.517 C 193.603 389.507, 128.750 389.615, 120.500 389.755" stroke="none" fill="#fff" fill-rule="evenodd"></path><path d="M 280.492 302.500 L 280.500 389.500 295 389.540 L 309.500 389.580 295.256 389.263 L 281.011 388.947 280.747 302.223 L 280.483 215.500 280.492 302.500 M 113.750 389.743 C 117.737 389.932, 124.263 389.932, 128.250 389.743 C 132.238 389.553, 128.975 389.397, 121 389.397 C 113.025 389.397, 109.763 389.553, 113.750 389.743 M 200.750 389.743 C 204.738 389.932, 211.262 389.932, 215.250 389.743 C 219.238 389.553, 215.975 389.397, 208 389.397 C 200.025 389.397, 196.762 389.553, 200.750 389.743 M 374.292 389.742 C 378.027 389.935, 383.877 389.934, 387.292 389.739 C 390.706 389.545, 387.650 389.387, 380.500 389.389 C 373.350 389.390, 370.556 389.550, 374.292 389.742" stroke="none" fill="transparent" fill-rule="evenodd"></path><path d="M 303.872 126.750 C 302.629 128.336, 302.664 128.371, 304.250 127.128 C 305.916 125.821, 306.445 125, 305.622 125 C 305.415 125, 304.627 125.787, 303.872 126.750 M 282.872 151.750 C 281.629 153.336, 281.664 153.371, 283.250 152.128 C 284.212 151.373, 285 150.585, 285 150.378 C 285 149.555, 284.179 150.084, 282.872 151.750 M 215.872 179.750 C 214.629 181.336, 214.664 181.371, 216.250 180.128 C 217.916 178.821, 218.445 178, 217.622 178 C 217.415 178, 216.627 178.787, 215.872 179.750 M 222.478 302.500 C 222.478 350.350, 222.600 370.071, 222.750 346.325 C 222.899 322.579, 222.899 283.429, 222.750 259.325 C 222.601 235.221, 222.478 254.650, 222.478 302.500 M 161.872 227.750 C 160.629 229.336, 160.664 229.371, 162.250 228.128 C 163.916 226.821, 164.445 226, 163.622 226 C 163.415 226, 162.627 226.787, 161.872 227.750 M 193.469 330.500 C 193.469 362.950, 193.595 376.080, 193.750 359.678 C 193.904 343.277, 193.904 316.727, 193.749 300.678 C 193.595 284.630, 193.469 298.050, 193.469 330.500" stroke="none" fill="transparent" fill-rule="evenodd"></path></g></svg>